<svg width="602" height="640" viewBox="0 0 602 640" fill="none" xmlns="http://www.w3.org/2000/svg">
<path d="M508.083 89.6502C558.558 137.326 593.368 194.455 584.665 244.597C575.528 294.738 522.877 337.893 489.807 391.734C457.173 445.986 444.119 510.924 396.69 559.421C348.826 607.508 266.151 639.155 206.103 616.55C146.056 593.945 108.199 517.5 72.0837 446.397C35.968 374.883 1.15771 308.712 24.6547 263.914C48.1516 219.526 129.956 196.51 190.004 150.889C249.616 104.857 287.908 36.2204 339.688 20.6025C391.468 4.98455 457.608 42.3854 508.083 89.6502Z" fill="#AA6BC8"/>
<g clip-path="url(#clip0_155_250)">
<path d="M496.123 122.975C534.138 161.581 529.835 251.53 519.793 330.733C510.11 409.935 495.406 477.994 457.392 526.551C419.018 574.709 357.693 602.967 306.409 591.425C255.126 580.281 213.883 529.337 171.924 480.78C129.606 432.622 86.5704 386.851 76.8875 330.733C67.2045 274.614 91.2326 207.749 133.551 169.143C175.51 130.537 235.76 120.189 306.409 108.646C377.059 97.1043 458.109 84.3681 496.123 122.975Z" fill="#C298E8"/>
</g>
<defs>
<clipPath id="clip0_155_250">
<rect width="450" height="497" fill="white" transform="translate(75.7534 97)"/>
</clipPath>
</defs>
</svg>
